BenchTwelve Medium-black.ufo
<glyph name="exclam" format="1">
  <advance width="853"/>
  <unicode hex="0021"/>
  <outline>
    <contour>
      <point x="225" y="0" type="curve" smooth="yes"/>
      <point x="626" y="0" type="line" smooth="yes"/>
      <point x="669" y="0"/>
      <point x="702" y="33"/>
      <point x="702" y="76" type="curve" smooth="yes"/>
      <point x="702" y="287" type="line" smooth="yes"/>
      <point x="702" y="330"/>
      <point x="669" y="363"/>
      <point x="626" y="363" type="curve" smooth="yes"/>
      <point x="225" y="363" type="line" smooth="yes"/>
      <point x="182" y="363"/>
      <point x="149" y="330"/>
      <point x="149" y="287" type="curve" smooth="yes"/>
      <point x="149" y="76" type="line" smooth="yes"/>
      <point x="149" y="33"/>
      <point x="182" y="0"/>
    </contour>
    <contour>
      <point x="357" y="515" type="curve" smooth="yes"/>
      <point x="504" y="515" type="line" smooth="yes"/>
      <point x="547" y="515"/>
      <point x="570" y="549"/>
      <point x="576" y="591" type="curve" smooth="yes"/>
      <point x="704" y="1442" type="line"/>
      <point x="705" y="1485"/>
      <point x="672" y="1521"/>
      <point x="629" y="1521" type="curve" smooth="yes"/>
      <point x="231" y="1521" type="line" smooth="yes"/>
      <point x="188" y="1521"/>
      <point x="155" y="1489"/>
      <point x="155" y="1446" type="curve"/>
      <point x="284" y="591" type="line" smooth="yes"/>
      <point x="291" y="549"/>
      <point x="314" y="515"/>
    </contour>
  </outline>
</glyph>
<glyph name="quotedbl" format="1">
  <advance width="1323"/>
  <unicode hex="0022"/>
  <outline>
    <contour>
      <point x="317" y="689" type="curve" smooth="yes"/>
      <point x="396" y="689" type="line" smooth="yes"/>
      <point x="439" y="689"/>
      <point x="462" y="722"/>
      <point x="468" y="764" type="curve"/>
      <point x="596" y="1443" type="line"/>
      <point x="597" y="1486"/>
      <point x="564" y="1521"/>
      <point x="521" y="1521" type="curve" smooth="yes"/>
      <point x="191" y="1521" type="line" smooth="yes"/>
      <point x="148" y="1521"/>
      <point x="114" y="1486"/>
      <point x="115" y="1443" type="curve"/>
      <point x="244" y="764" type="line"/>
      <point x="251" y="722"/>
      <point x="274" y="689"/>
    </contour>
    <contour>
      <point x="923" y="689" type="curve" smooth="yes"/>
      <point x="1002" y="689" type="line" smooth="yes"/>
      <point x="1045" y="689"/>
      <point x="1067" y="722"/>
      <point x="1074" y="764" type="curve"/>
      <point x="1202" y="1443" type="line"/>
      <point x="1203" y="1486"/>
      <point x="1170" y="1521"/>
      <point x="1127" y="1521" type="curve" smooth="yes"/>
      <point x="796" y="1521" type="line" smooth="yes"/>
      <point x="753" y="1521"/>
      <point x="720" y="1486"/>
      <point x="721" y="1443" type="curve"/>
      <point x="850" y="764" type="line"/>
      <point x="857" y="722"/>
      <point x="880" y="689"/>
    </contour>
  </outline>
</glyph>
<glyph name="numbersign" format="1">
  <advance width="1824"/>
  <unicode hex="0023"/>
  <outline>
    <contour>
      <point x="260" y="-205" type="curve" smooth="yes"/>
      <point x="467" y="-205" type="line" smooth="yes"/>
      <point x="489" y="-205"/>
      <point x="509" y="-191"/>
      <point x="517" y="-170" type="curve"/>
      <point x="643" y="369" type="line"/>
      <point x="1017" y="369" type="line"/>
      <point x="891" y="-170" type="line"/>
      <point x="885" y="-187"/>
      <point x="897" y="-205"/>
      <point x="915" y="-205" type="curve" smooth="yes"/>
      <point x="1122" y="-205" type="line" smooth="yes"/>
      <point x="1144" y="-205"/>
      <point x="1164" y="-191"/>
      <point x="1172" y="-170" type="curve"/>
      <point x="1298" y="369" type="line"/>
      <point x="1542" y="369" type="line" smooth="yes"/>
      <point x="1585" y="369"/>
      <point x="1609" y="383"/>
      <point x="1609" y="426" type="curve" smooth="yes"/>
      <point x="1609" y="523" type="line" smooth="yes"/>
      <point x="1609" y="566"/>
      <point x="1585" y="580"/>
      <point x="1542" y="580" type="curve" smooth="yes"/>
      <point x="1347" y="580" type="line"/>
      <point x="1397" y="793" type="line"/>
      <point x="1617" y="793" type="line" smooth="yes"/>
      <point x="1660" y="793"/>
      <point x="1684" y="807"/>
      <point x="1684" y="850" type="curve" smooth="yes"/>
      <point x="1684" y="949" type="line" smooth="yes"/>
      <point x="1684" y="992"/>
      <point x="1660" y="1006"/>
      <point x="1617" y="1006" type="curve" smooth="yes"/>
      <point x="1447" y="1006" type="line"/>
      <point x="1589" y="1612" type="line"/>
      <point x="1595" y="1629"/>
      <point x="1583" y="1647"/>
      <point x="1565" y="1647" type="curve" smooth="yes"/>
      <point x="1358" y="1647" type="line" smooth="yes"/>
      <point x="1336" y="1647"/>
      <point x="1316" y="1633"/>
      <point x="1308" y="1612" type="curve"/>
      <point x="1166" y="1006" type="line"/>
      <point x="792" y="1006" type="line"/>
      <point x="934" y="1612" type="line"/>
      <point x="940" y="1629"/>
      <point x="928" y="1647"/>
      <point x="910" y="1647" type="curve" smooth="yes"/>
      <point x="703" y="1647" type="line" smooth="yes"/>
      <point x="681" y="1647"/>
      <point x="661" y="1633"/>
      <point x="653" y="1612" type="curve"/>
      <point x="511" y="1006" type="line"/>
      <point x="280" y="1006" type="line" smooth="yes"/>
      <point x="237" y="1006"/>
      <point x="213" y="992"/>
      <point x="213" y="949" type="curve" smooth="yes"/>
      <point x="213" y="850" type="line" smooth="yes"/>
      <point x="213" y="807"/>
      <point x="237" y="793"/>
      <point x="280" y="793" type="curve" smooth="yes"/>
      <point x="461" y="793" type="line"/>
      <point x="411" y="580" type="line"/>
      <point x="205" y="580" type="line" smooth="yes"/>
      <point x="162" y="580"/>
      <point x="138" y="566"/>
      <point x="138" y="523" type="curve" smooth="yes"/>
      <point x="138" y="426" type="line" smooth="yes"/>
      <point x="138" y="383"/>
      <point x="162" y="369"/>
      <point x="205" y="369" type="curve" smooth="yes"/>
      <point x="362" y="369" type="line"/>
      <point x="236" y="-170" type="line"/>
      <point x="230" y="-187"/>
      <point x="242" y="-205"/>
    </contour>
    <contour>
      <point x="692" y="580" type="line"/>
      <point x="742" y="793" type="line"/>
      <point x="1116" y="793" type="line"/>
      <point x="1066" y="580" type="line"/>
    </contour>
  </outline>
</glyph>
<glyph name="dollar" format="1">
  <advance width="2529"/>
  <unicode hex="0024"/>
  <outline>
    <contour>
      <point x="1198" y="-197" type="curve" smooth="yes"/>
      <point x="1262" y="-197" type="line" smooth="yes"/>
      <point x="1281" y="-197"/>
      <point x="1296" y="-163"/>
      <point x="1296" y="-117" type="curve" smooth="yes"/>
      <point x="1296" y="-40" type="line"/>
      <point x="2029" y="-27"/>
      <point x="2293" y="118"/>
      <point x="2293" y="456" type="curve" smooth="yes"/>
      <point x="2293" y="846"/>
      <point x="1793" y="903"/>
      <point x="1296" y="923" type="curve"/>
      <point x="1296" y="1122" type="line"/>
      <point x="1490" y="1115"/>
      <point x="1738" y="1083"/>
      <point x="1949" y="1016" type="curve" smooth="yes"/>
      <point x="1995" y="1004"/>
      <point x="2034" y="1028"/>
      <point x="2052" y="1062" type="curve" smooth="yes"/>
      <point x="2052" y="1064"/>
      <point x="2139" y="1238"/>
      <point x="2139" y="1239" type="curve" smooth="yes"/>
      <point x="2154" y="1273"/>
      <point x="2136" y="1317"/>
      <point x="2101" y="1331" type="curve" smooth="yes"/>
      <point x="1879" y="1417"/>
      <point x="1617" y="1462"/>
      <point x="1296" y="1472" type="curve"/>
      <point x="1296" y="1563" type="line" smooth="yes"/>
      <point x="1296" y="1610"/>
      <point x="1281" y="1643"/>
      <point x="1262" y="1643" type="curve" smooth="yes"/>
      <point x="1198" y="1643" type="line" smooth="yes"/>
      <point x="1179" y="1643"/>
      <point x="1164" y="1610"/>
      <point x="1164" y="1563" type="curve" smooth="yes"/>
      <point x="1164" y="1475" type="line"/>
      <point x="638" y="1475"/>
      <point x="151" y="1427"/>
      <point x="151" y="989" type="curve" smooth="yes"/>
      <point x="151" y="594"/>
      <point x="643" y="550"/>
      <point x="1164" y="523" type="curve"/>
      <point x="1164" y="317" type="line"/>
      <point x="839" y="326"/>
      <point x="597" y="372"/>
      <point x="350" y="443" type="curve" smooth="yes"/>
      <point x="309" y="454"/>
      <point x="268" y="435"/>
      <point x="250" y="397" type="curve" smooth="yes"/>
      <point x="250" y="397"/>
      <point x="157" y="197"/>
      <point x="157" y="196" type="curve" smooth="yes"/>
      <point x="143" y="161"/>
      <point x="161" y="117"/>
      <point x="197" y="105" type="curve" smooth="yes"/>
      <point x="512" y="-9"/>
      <point x="835" y="-40"/>
      <point x="1164" y="-41" type="curve"/>
      <point x="1164" y="-117" type="line" smooth="yes"/>
      <point x="1164" y="-163"/>
      <point x="1179" y="-197"/>
    </contour>
    <contour>
      <point x="1296" y="315" type="curve"/>
      <point x="1296" y="516" type="line"/>
      <point x="1483" y="514"/>
      <point x="1556" y="485"/>
      <point x="1556" y="410" type="curve" smooth="yes"/>
      <point x="1556" y="340"/>
      <point x="1465" y="316"/>
      <point x="1313" y="315" type="curve" smooth="yes"/>
      <point x="1308" y="315"/>
      <point x="1301" y="315"/>
    </contour>
    <contour>
      <point x="1164" y="931" type="line"/>
      <point x="922" y="948"/>
      <point x="858" y="971"/>
      <point x="858" y="1035" type="curve" smooth="yes"/>
      <point x="858" y="1108"/>
      <point x="992" y="1124"/>
      <point x="1164" y="1124" type="curve"/>
    </contour>
  </outline>
</glyph>
<glyph name="six" format="1">
  <advance width="2320"/>
  <unicode hex="0036"/>
  <outline>
    <contour>
      <point x="1180" y="-40" type="curve" smooth="yes"/>
      <point x="1764" y="-40"/>
      <point x="2186" y="57"/>
      <point x="2186" y="444" type="curve" smooth="yes"/>
      <point x="2186" y="721"/>
      <point x="1913" y="928"/>
      <point x="1265" y="928" type="curve" smooth="yes"/>
      <point x="1127" y="928"/>
      <point x="1000" y="905"/>
      <point x="858" y="884" type="curve"/>
      <point x="858" y="907" type="line"/>
      <point x="857" y="1130"/>
      <point x="997" y="1158"/>
      <point x="1274" y="1162" type="curve" smooth="yes"/>
      <point x="1584" y="1166"/>
      <point x="1898" y="1081"/>
      <point x="1944" y="1069" type="curve" smooth="yes"/>
      <point x="1952" y="1067"/>
      <point x="1959" y="1066"/>
      <point x="1966" y="1066" type="curve" smooth="yes"/>
      <point x="1990" y="1066"/>
      <point x="2004" y="1078"/>
      <point x="2009" y="1108" type="curve" smooth="yes"/>
      <point x="2036" y="1298" type="line" smooth="yes"/>
      <point x="2037" y="1303"/>
      <point x="2037" y="1307"/>
      <point x="2037" y="1311" type="curve" smooth="yes"/>
      <point x="2037" y="1339"/>
      <point x="2021" y="1356"/>
      <point x="1987" y="1365" type="curve" smooth="yes"/>
      <point x="1873" y="1401"/>
      <point x="1471" y="1475"/>
      <point x="1241" y="1475" type="curve" smooth="yes"/>
      <point x="440" y="1475"/>
      <point x="138" y="1227"/>
      <point x="138" y="670" type="curve" smooth="yes"/>
      <point x="138" y="194"/>
      <point x="561" y="-40"/>
    </contour>
    <contour>
      <point x="1195" y="249" type="curve" smooth="yes"/>
      <point x="990" y="249"/>
      <point x="855" y="297"/>
      <point x="855" y="512" type="curve" smooth="yes"/>
      <point x="855" y="641" type="line"/>
      <point x="993" y="668"/>
      <point x="1117" y="683"/>
      <point x="1221" y="683" type="curve" smooth="yes"/>
      <point x="1458" y="683"/>
      <point x="1516" y="611"/>
      <point x="1516" y="462" type="curve" smooth="yes"/>
      <point x="1516" y="290"/>
      <point x="1398" y="249"/>
    </contour>
  </outline>
</glyph>
<glyph name="greater" format="1">
  <advance width="1290"/>
  <unicode hex="003E"/>
  <outline>
    <contour>
      <point x="198" y="-89" type="curve" smooth="yes"/>
      <point x="206" y="-89"/>
      <point x="214" y="-87"/>
      <point x="222" y="-82" type="curve" smooth="yes"/>
      <point x="1083" y="380" type="line" smooth="yes"/>
      <point x="1124" y="402"/>
      <point x="1151" y="445"/>
      <point x="1151" y="491" type="curve" smooth="yes"/>
      <point x="1151" y="862" type="line" smooth="yes"/>
      <point x="1151" y="908"/>
      <point x="1125" y="953"/>
      <point x="1084" y="974" type="curve" smooth="yes"/>
      <point x="221" y="1447" type="line" smooth="yes"/>
      <point x="212" y="1452"/>
      <point x="204" y="1455"/>
      <point x="196" y="1455" type="curve" smooth="yes"/>
      <point x="174" y="1455"/>
      <point x="154" y="1436"/>
      <point x="154" y="1410" type="curve" smooth="yes"/>
      <point x="154" y="1074" type="line" smooth="yes"/>
      <point x="154" y="1029"/>
      <point x="181" y="987"/>
      <point x="223" y="967" type="curve" smooth="yes"/>
      <point x="758" y="713" type="line" smooth="yes"/>
      <point x="765" y="710"/>
      <point x="768" y="703"/>
      <point x="768" y="697" type="curve" smooth="yes"/>
      <point x="768" y="691"/>
      <point x="765" y="686"/>
      <point x="758" y="682" type="curve" smooth="yes"/>
      <point x="223" y="423" type="line" smooth="yes"/>
      <point x="181" y="404"/>
      <point x="154" y="364"/>
      <point x="154" y="318" type="curve" smooth="yes"/>
      <point x="154" y="-43" type="line" smooth="yes"/>
      <point x="154" y="-70"/>
      <point x="174" y="-89"/>
    </contour>
  </outline>
</glyph>
<glyph name="K" format="1">
  <advance width="2199"/>
  <unicode hex="004B"/>
  <outline>
    <contour>
      <point x="235" y="0" type="curve" smooth="yes"/>
      <point x="766" y="0" type="line" smooth="yes"/>
      <point x="809" y="0"/>
      <point x="841" y="33"/>
      <point x="841" y="76" type="curve" smooth="yes"/>
      <point x="841" y="667" type="line"/>
      <point x="1307" y="64" type="line" smooth="yes"/>
      <point x="1336" y="26"/>
      <point x="1380" y="0"/>
      <point x="1426" y="0" type="curve" smooth="yes"/>
      <point x="2040" y="0" type="line" smooth="yes"/>
      <point x="2073" y="0"/>
      <point x="2091" y="35"/>
      <point x="2069" y="63" type="curve" smooth="yes"/>
      <point x="1490" y="784" type="line" smooth="yes"/>
      <point x="1481" y="795"/>
      <point x="1472" y="805"/>
      <point x="1461" y="812" type="curve"/>
      <point x="1475" y="821"/>
      <point x="1488" y="832"/>
      <point x="1500" y="845" type="curve" smooth="yes"/>
      <point x="1982" y="1377" type="line" smooth="yes"/>
      <point x="2005" y="1402"/>
      <point x="1988" y="1438"/>
      <point x="1955" y="1438" type="curve" smooth="yes"/>
      <point x="1443" y="1438" type="line" smooth="yes"/>
      <point x="1397" y="1438"/>
      <point x="1349" y="1412"/>
      <point x="1321" y="1378" type="curve" smooth="yes"/>
      <point x="841" y="820" type="line"/>
      <point x="841" y="1363" type="line" smooth="yes"/>
      <point x="841" y="1406"/>
      <point x="809" y="1438"/>
      <point x="766" y="1438" type="curve" smooth="yes"/>
      <point x="235" y="1438" type="line" smooth="yes"/>
      <point x="192" y="1438"/>
      <point x="159" y="1406"/>
      <point x="159" y="1363" type="curve" smooth="yes"/>
      <point x="159" y="76" type="line" smooth="yes"/>
      <point x="159" y="33"/>
      <point x="192" y="0"/>
    </contour>
    <contour>
      <point x="1100" y="1438" type="move" name="top"/>
    </contour>
    <contour>
      <point x="1100" y="0" type="move" name="bottom"/>
    </contour>
  </outline>
</glyph>
<glyph name="T" format="1">
  <advance width="2123"/>
  <unicode hex="0054"/>
  <outline>
    <contour>
      <point x="810" y="0" type="curve" smooth="yes"/>
      <point x="1311" y="0" type="line" smooth="yes"/>
      <point x="1354" y="0"/>
      <point x="1386" y="33"/>
      <point x="1386" y="76" type="curve" smooth="yes"/>
      <point x="1386" y="1069" type="line" smooth="yes"/>
      <point x="1386" y="1089"/>
      <point x="1402" y="1104"/>
      <point x="1422" y="1104" type="curve" smooth="yes"/>
      <point x="1939" y="1104" type="line" smooth="yes"/>
      <point x="1982" y="1104"/>
      <point x="2015" y="1138"/>
      <point x="2015" y="1181" type="curve" smooth="yes"/>
      <point x="2015" y="1361" type="line" smooth="yes"/>
      <point x="2015" y="1404"/>
      <point x="1982" y="1438"/>
      <point x="1939" y="1438" type="curve" smooth="yes"/>
      <point x="178" y="1438" type="line" smooth="yes"/>
      <point x="135" y="1438"/>
      <point x="103" y="1404"/>
      <point x="103" y="1361" type="curve" smooth="yes"/>
      <point x="103" y="1181" type="line" smooth="yes"/>
      <point x="103" y="1138"/>
      <point x="135" y="1104"/>
      <point x="178" y="1104" type="curve" smooth="yes"/>
      <point x="699" y="1104" type="line" smooth="yes"/>
      <point x="719" y="1104"/>
      <point x="734" y="1089"/>
      <point x="734" y="1069" type="curve" smooth="yes"/>
      <point x="734" y="76" type="line" smooth="yes"/>
      <point x="734" y="33"/>
      <point x="767" y="0"/>
    </contour>
    <contour>
      <point x="1062" y="1438" type="move" name="top"/>
    </contour>
    <contour>
      <point x="1062" y="719" type="move" name="center"/>
    </contour>
    <contour>
      <point x="1062" y="0" type="move" name="bottom"/>
    </contour>
  </outline>
</glyph>
<glyph name="U" format="1">
  <advance width="2629"/>
  <unicode hex="0055"/>
  <outline>
    <contour>
      <point x="1332" y="-41" type="curve" smooth="yes"/>
      <point x="1831" y="-41"/>
      <point x="2478" y="66"/>
      <point x="2478" y="711" type="curve" smooth="yes"/>
      <point x="2478" y="1363" type="line" smooth="yes"/>
      <point x="2478" y="1406"/>
      <point x="2445" y="1438"/>
      <point x="2402" y="1438" type="curve" smooth="yes"/>
      <point x="1825" y="1438" type="line" smooth="yes"/>
      <point x="1782" y="1438"/>
      <point x="1749" y="1406"/>
      <point x="1749" y="1363" type="curve" smooth="yes"/>
      <point x="1749" y="711" type="line" smooth="yes"/>
      <point x="1749" y="397"/>
      <point x="1580" y="322"/>
      <point x="1332" y="322" type="curve" smooth="yes"/>
      <point x="1084" y="322"/>
      <point x="913" y="397"/>
      <point x="913" y="711" type="curve" smooth="yes"/>
      <point x="913" y="1363" type="line" smooth="yes"/>
      <point x="913" y="1406"/>
      <point x="884" y="1438"/>
      <point x="838" y="1438" type="curve" smooth="yes"/>
      <point x="225" y="1438" type="line" smooth="yes"/>
      <point x="185" y="1438"/>
      <point x="150" y="1406"/>
      <point x="150" y="1363" type="curve" smooth="yes"/>
      <point x="150" y="711" type="line" smooth="yes"/>
      <point x="150" y="66"/>
      <point x="819" y="-41"/>
    </contour>
    <contour>
      <point x="1314" y="1438" type="move" name="top"/>
    </contour>
    <contour>
      <point x="2366" y="10" type="move" name="ogonek"/>
    </contour>
  </outline>
</glyph>
<glyph name="bracketright" format="1">
  <advance width="1385"/>
  <unicode hex="005D"/>
  <outline>
    <contour>
      <point x="206" y="-184" type="curve" smooth="yes"/>
      <point x="1147" y="-184" type="line" smooth="yes"/>
      <point x="1190" y="-184"/>
      <point x="1224" y="-150"/>
      <point x="1224" y="-107" type="curve" smooth="yes"/>
      <point x="1224" y="1551" type="line" smooth="yes"/>
      <point x="1224" y="1594"/>
      <point x="1190" y="1628"/>
      <point x="1147" y="1628" type="curve" smooth="yes"/>
      <point x="206" y="1628" type="line" smooth="yes"/>
      <point x="163" y="1628"/>
      <point x="130" y="1597"/>
      <point x="130" y="1554" type="curve" smooth="yes"/>
      <point x="130" y="1352" type="line" smooth="yes"/>
      <point x="130" y="1309"/>
      <point x="163" y="1278"/>
      <point x="206" y="1278" type="curve" smooth="yes"/>
      <point x="583" y="1278" type="line" smooth="yes"/>
      <point x="603" y="1278"/>
      <point x="618" y="1262"/>
      <point x="618" y="1242" type="curve" smooth="yes"/>
      <point x="618" y="203" type="line" smooth="yes"/>
      <point x="618" y="183"/>
      <point x="603" y="168"/>
      <point x="583" y="168" type="curve" smooth="yes"/>
      <point x="206" y="168" type="line" smooth="yes"/>
      <point x="163" y="168"/>
      <point x="130" y="137"/>
      <point x="130" y="94" type="curve" smooth="yes"/>
      <point x="130" y="-110" type="line" smooth="yes"/>
      <point x="130" y="-153"/>
      <point x="163" y="-184"/>
    </contour>
  </outline>
</glyph>
<glyph name="asciicircum" format="1">
  <advance width="1299"/>
  <unicode hex="005E"/>
  <outline>
    <contour>
      <point x="-84" y="201" type="curve" smooth="yes"/>
      <point x="255" y="201" type="line" smooth="yes"/>
      <point x="301" y="201"/>
      <point x="342" y="229"/>
      <point x="362" y="270" type="curve" smooth="yes"/>
      <point x="610" y="802" type="line" smooth="yes"/>
      <point x="613" y="809"/>
      <point x="620" y="812"/>
      <point x="626" y="812" type="curve" smooth="yes"/>
      <point x="632" y="812"/>
      <point x="638" y="809"/>
      <point x="642" y="802" type="curve" smooth="yes"/>
      <point x="892" y="270" type="line" smooth="yes"/>
      <point x="911" y="229"/>
      <point x="952" y="201"/>
      <point x="998" y="201" type="curve" smooth="yes"/>
      <point x="1359" y="201" type="line" smooth="yes"/>
      <point x="1386" y="201"/>
      <point x="1405" y="223"/>
      <point x="1405" y="247" type="curve" smooth="yes"/>
      <point x="1405" y="255"/>
      <point x="1404" y="262"/>
      <point x="1400" y="269" type="curve" smooth="yes"/>
      <point x="940" y="1139" type="line" smooth="yes"/>
      <point x="918" y="1180"/>
      <point x="877" y="1207"/>
      <point x="830" y="1207" type="curve" smooth="yes"/>
      <point x="462" y="1207" type="line" smooth="yes"/>
      <point x="415" y="1207"/>
      <point x="373" y="1180"/>
      <point x="351" y="1140" type="curve" smooth="yes"/>
      <point x="-124" y="268" type="line" smooth="yes"/>
      <point x="-128" y="261"/>
      <point x="-130" y="253"/>
      <point x="-130" y="246" type="curve" smooth="yes"/>
      <point x="-130" y="223"/>
      <point x="-111" y="201"/>
    </contour>
  </outline>
</glyph>
<glyph name="underscore" format="1">
  <advance width="1164"/>
  <unicode hex="005F"/>
  <outline>
    <contour>
      <point x="164" y="-277" type="curve" smooth="yes"/>
      <point x="996" y="-277" type="line" smooth="yes"/>
      <point x="1039" y="-277"/>
      <point x="1060" y="-246"/>
      <point x="1060" y="-203" type="curve" smooth="yes"/>
      <point x="1060" y="-73" type="line" smooth="yes"/>
      <point x="1060" y="-30"/>
      <point x="1039" y="0"/>
      <point x="996" y="0" type="curve" smooth="yes"/>
      <point x="164" y="0" type="line" smooth="yes"/>
      <point x="121" y="0"/>
      <point x="100" y="-30"/>
      <point x="100" y="-73" type="curve" smooth="yes"/>
      <point x="100" y="-203" type="line" smooth="yes"/>
      <point x="100" y="-246"/>
      <point x="121" y="-277"/>
    </contour>
  </outline>
</glyph>
<glyph name="a" format="1">
  <advance width="1972"/>
  <unicode hex="0061"/>
  <outline>
    <contour>
      <point x="736" y="-41" type="curve" smooth="yes"/>
      <point x="1102" y="-41"/>
      <point x="1336" y="63"/>
      <point x="1445" y="215" type="curve" smooth="yes"/>
      <point x="1451" y="223"/>
      <point x="1457" y="230"/>
      <point x="1461" y="230" type="curve" smooth="yes"/>
      <point x="1468" y="230"/>
      <point x="1472" y="222"/>
      <point x="1476" y="211" type="curve" smooth="yes"/>
      <point x="1483" y="188"/>
      <point x="1526" y="110"/>
      <point x="1549" y="66" type="curve" smooth="yes"/>
      <point x="1568" y="24"/>
      <point x="1607" y="0"/>
      <point x="1647" y="0" type="curve" smooth="yes"/>
      <point x="1766" y="0" type="line" smooth="yes"/>
      <point x="1801" y="0"/>
      <point x="1827" y="29"/>
      <point x="1827" y="68" type="curve" smooth="yes"/>
      <point x="1827" y="622" type="line" smooth="yes"/>
      <point x="1827" y="968"/>
      <point x="1432" y="1053"/>
      <point x="957" y="1053" type="curve" smooth="yes"/>
      <point x="483" y="1053"/>
      <point x="244" y="989"/>
      <point x="179" y="846" type="curve" smooth="yes"/>
      <point x="174" y="833"/>
      <point x="168" y="817"/>
      <point x="168" y="802" type="curve" smooth="yes"/>
      <point x="168" y="785"/>
      <point x="183" y="766"/>
      <point x="200" y="765" type="curve" smooth="yes"/>
      <point x="576" y="731" type="line" smooth="yes"/>
      <point x="585" y="730"/>
      <point x="592" y="729"/>
      <point x="598" y="729" type="curve" smooth="yes"/>
      <point x="619" y="729"/>
      <point x="634" y="737"/>
      <point x="657" y="758" type="curve" smooth="yes"/>
      <point x="734" y="827"/>
      <point x="877" y="849"/>
      <point x="961" y="849" type="curve" smooth="yes"/>
      <point x="1174" y="849"/>
      <point x="1248" y="778"/>
      <point x="1248" y="654" type="curve" smooth="yes"/>
      <point x="1248" y="639" type="line" smooth="yes"/>
      <point x="1248" y="596"/>
      <point x="138" y="650"/>
      <point x="139" y="238" type="curve" smooth="yes"/>
      <point x="140" y="62"/>
      <point x="375" y="-41"/>
    </contour>
    <contour>
      <point x="843" y="174" type="curve" smooth="yes"/>
      <point x="734" y="174"/>
      <point x="682" y="210"/>
      <point x="681" y="271" type="curve" smooth="yes"/>
      <point x="681" y="369"/>
      <point x="877" y="414"/>
      <point x="1194" y="454" type="curve" smooth="yes"/>
      <point x="1199" y="455"/>
      <point x="1229" y="456"/>
      <point x="1232" y="456" type="curve" smooth="yes"/>
      <point x="1260" y="456"/>
      <point x="1260" y="438"/>
      <point x="1260" y="424" type="curve" smooth="yes"/>
      <point x="1260" y="285"/>
      <point x="1069" y="174"/>
    </contour>
    <contour>
      <point x="986" y="1006" type="move" name="top"/>
    </contour>
    <contour>
      <point x="1775" y="10" type="move" name="ogonek"/>
    </contour>
  </outline>
</glyph>
<glyph name="q" format="1">
  <advance width="2040"/>
  <unicode hex="0071"/>
  <outline>
    <contour>
      <point x="1411" y="-318" type="curve" smooth="yes"/>
      <point x="1810" y="-318" type="line" smooth="yes"/>
      <point x="1853" y="-318"/>
      <point x="1885" y="-286"/>
      <point x="1885" y="-243" type="curve" smooth="yes"/>
      <point x="1885" y="924" type="line" smooth="yes"/>
      <point x="1885" y="967"/>
      <point x="1855" y="999"/>
      <point x="1812" y="999" type="curve" smooth="yes"/>
      <point x="1716" y="999" type="line" smooth="yes"/>
      <point x="1672" y="999"/>
      <point x="1628" y="975"/>
      <point x="1602" y="933" type="curve" smooth="yes"/>
      <point x="1601" y="927"/>
      <point x="1525" y="816"/>
      <point x="1523" y="811" type="curve" smooth="yes"/>
      <point x="1517" y="803"/>
      <point x="1510" y="799"/>
      <point x="1503" y="799" type="curve" smooth="yes"/>
      <point x="1496" y="799"/>
      <point x="1489" y="803"/>
      <point x="1483" y="809" type="curve" smooth="yes"/>
      <point x="1355" y="971"/>
      <point x="1113" y="1053"/>
      <point x="875" y="1053" type="curve" smooth="yes"/>
      <point x="507" y="1053"/>
      <point x="132" y="883"/>
      <point x="132" y="511" type="curve" smooth="yes"/>
      <point x="132" y="119"/>
      <point x="499" y="-41"/>
      <point x="841" y="-41" type="curve" smooth="yes"/>
      <point x="1022" y="-41"/>
      <point x="1195" y="-3"/>
      <point x="1308" y="76" type="curve" smooth="yes"/>
      <point x="1311" y="78"/>
      <point x="1315" y="80"/>
      <point x="1319" y="80" type="curve" smooth="yes"/>
      <point x="1328" y="80"/>
      <point x="1336" y="72"/>
      <point x="1336" y="61" type="curve" smooth="yes"/>
      <point x="1336" y="-243" type="line" smooth="yes"/>
      <point x="1336" y="-286"/>
      <point x="1368" y="-318"/>
    </contour>
    <contour>
      <point x="1015" y="213" type="curve" smooth="yes"/>
      <point x="822" y="213"/>
      <point x="706" y="341"/>
      <point x="706" y="498" type="curve" smooth="yes"/>
      <point x="706" y="648"/>
      <point x="819" y="781"/>
      <point x="1016" y="781" type="curve" smooth="yes"/>
      <point x="1222" y="781"/>
      <point x="1336" y="649"/>
      <point x="1336" y="498" type="curve" smooth="yes"/>
      <point x="1336" y="344"/>
      <point x="1219" y="213"/>
    </contour>
  </outline>
</glyph>
<glyph name="s" format="1">
  <advance width="1827"/>
  <unicode hex="0073"/>
  <outline>
    <contour>
      <point x="900" y="-41" type="curve" smooth="yes"/>
      <point x="1351" y="-41"/>
      <point x="1705" y="30"/>
      <point x="1705" y="307" type="curve" smooth="yes"/>
      <point x="1705" y="630"/>
      <point x="1318" y="642"/>
      <point x="998" y="662" type="curve" smooth="yes"/>
      <point x="734" y="678"/>
      <point x="609" y="677"/>
      <point x="609" y="733" type="curve" smooth="yes"/>
      <point x="609" y="775"/>
      <point x="673" y="803"/>
      <point x="918" y="803" type="curve" smooth="yes"/>
      <point x="1156" y="803"/>
      <point x="1298" y="782"/>
      <point x="1432" y="736" type="curve" smooth="yes"/>
      <point x="1475" y="722"/>
      <point x="1520" y="738"/>
      <point x="1539" y="776" type="curve"/>
      <point x="1584" y="870" type="line"/>
      <point x="1601" y="904"/>
      <point x="1583" y="950"/>
      <point x="1548" y="964" type="curve" smooth="yes"/>
      <point x="1335" y="1047"/>
      <point x="1121" y="1053"/>
      <point x="881" y="1053" type="curve" smooth="yes"/>
      <point x="633" y="1053"/>
      <point x="148" y="1020"/>
      <point x="148" y="703" type="curve" smooth="yes"/>
      <point x="148" y="432"/>
      <point x="573" y="408"/>
      <point x="883" y="387" type="curve" smooth="yes"/>
      <point x="1168" y="368"/>
      <point x="1217" y="362"/>
      <point x="1217" y="294" type="curve" smooth="yes"/>
      <point x="1217" y="239"/>
      <point x="1152" y="218"/>
      <point x="993" y="218" type="curve" smooth="yes"/>
      <point x="747" y="218"/>
      <point x="531" y="240"/>
      <point x="316" y="306" type="curve" smooth="yes"/>
      <point x="273" y="319"/>
      <point x="231" y="300"/>
      <point x="211" y="259" type="curve" smooth="yes"/>
      <point x="158" y="154" type="line" smooth="yes"/>
      <point x="143" y="120"/>
      <point x="162" y="72"/>
      <point x="197" y="59" type="curve" smooth="yes"/>
      <point x="397" y="-18"/>
      <point x="697" y="-41"/>
    </contour>
    <contour>
      <point x="920" y="1006" type="move" name="top"/>
    </contour>
    <contour>
      <point x="920" y="0" type="move" name="bottom"/>
    </contour>
  </outline>
</glyph>
<glyph name="t" format="1">
  <advance width="1605"/>
  <unicode hex="0074"/>
  <outline>
    <contour>
      <point x="1049" y="-41" type="curve" smooth="yes"/>
      <point x="1177" y="-41"/>
      <point x="1299" y="-25"/>
      <point x="1397" y="-2" type="curve" smooth="yes"/>
      <point x="1438" y="8"/>
      <point x="1470" y="46"/>
      <point x="1468" y="88" type="curve" smooth="yes"/>
      <point x="1467" y="232" type="line" smooth="yes"/>
      <point x="1465" y="272"/>
      <point x="1434" y="298"/>
      <point x="1393" y="287" type="curve" smooth="yes"/>
      <point x="1324" y="269"/>
      <point x="1237" y="254"/>
      <point x="1155" y="254" type="curve" smooth="yes"/>
      <point x="1019" y="254"/>
      <point x="906" y="295"/>
      <point x="906" y="433" type="curve" smooth="yes"/>
      <point x="906" y="762" type="line" smooth="yes"/>
      <point x="906" y="782"/>
      <point x="922" y="797"/>
      <point x="942" y="797" type="curve" smooth="yes"/>
      <point x="1314" y="797" type="line" smooth="yes"/>
      <point x="1357" y="797"/>
      <point x="1389" y="830"/>
      <point x="1389" y="873" type="curve" smooth="yes"/>
      <point x="1389" y="931" type="line" smooth="yes"/>
      <point x="1389" y="974"/>
      <point x="1357" y="1006"/>
      <point x="1314" y="1006" type="curve" smooth="yes"/>
      <point x="942" y="1006" type="line" smooth="yes"/>
      <point x="922" y="1006"/>
      <point x="906" y="1022"/>
      <point x="906" y="1042" type="curve" smooth="yes"/>
      <point x="906" y="1374" type="line" smooth="yes"/>
      <point x="906" y="1417"/>
      <point x="874" y="1450"/>
      <point x="831" y="1450" type="curve" smooth="yes"/>
      <point x="436" y="1450" type="line" smooth="yes"/>
      <point x="393" y="1450"/>
      <point x="362" y="1417"/>
      <point x="361" y="1374" type="curve"/>
      <point x="332" y="1042" type="line"/>
      <point x="332" y="1022"/>
      <point x="317" y="1006"/>
      <point x="297" y="1006" type="curve" smooth="yes"/>
      <point x="171" y="1006" type="line" smooth="yes"/>
      <point x="128" y="1006"/>
      <point x="96" y="974"/>
      <point x="96" y="931" type="curve" smooth="yes"/>
      <point x="96" y="873" type="line" smooth="yes"/>
      <point x="96" y="830"/>
      <point x="128" y="797"/>
      <point x="171" y="797" type="curve" smooth="yes"/>
      <point x="297" y="797" type="line" smooth="yes"/>
      <point x="317" y="797"/>
      <point x="332" y="782"/>
      <point x="332" y="762" type="curve" smooth="yes"/>
      <point x="332" y="475" type="line" smooth="yes"/>
      <point x="332" y="84"/>
      <point x="695" y="-41"/>
    </contour>
    <contour>
      <point x="788" y="503" type="move" name="center"/>
    </contour>
    <contour>
      <point x="788" y="0" type="move" name="bottom"/>
    </contour>
  </outline>
</glyph>
<glyph name="v" format="1">
  <advance width="1938"/>
  <unicode hex="0076"/>
  <outline>
    <contour>
      <point x="711" y="0" type="curve" smooth="yes"/>
      <point x="1221" y="0" type="line" smooth="yes"/>
      <point x="1267" y="0"/>
      <point x="1311" y="27"/>
      <point x="1334" y="67" type="curve" smooth="yes"/>
      <point x="1813" y="939" type="line" smooth="yes"/>
      <point x="1819" y="948"/>
      <point x="1821" y="957"/>
      <point x="1821" y="964" type="curve" smooth="yes"/>
      <point x="1821" y="986"/>
      <point x="1803" y="1006"/>
      <point x="1776" y="1006" type="curve" smooth="yes"/>
      <point x="1384" y="1006" type="line" smooth="yes"/>
      <point x="1338" y="1006"/>
      <point x="1297" y="979"/>
      <point x="1276" y="937" type="curve" smooth="yes"/>
      <point x="1021" y="393" type="line" smooth="yes"/>
      <point x="1018" y="386"/>
      <point x="1011" y="383"/>
      <point x="1006" y="383" type="curve" smooth="yes"/>
      <point x="1000" y="383"/>
      <point x="994" y="386"/>
      <point x="990" y="393" type="curve" smooth="yes"/>
      <point x="721" y="937" type="line" smooth="yes"/>
      <point x="701" y="979"/>
      <point x="661" y="1006"/>
      <point x="616" y="1006" type="curve" smooth="yes"/>
      <point x="160" y="1006" type="line" smooth="yes"/>
      <point x="133" y="1006"/>
      <point x="115" y="986"/>
      <point x="115" y="963" type="curve" smooth="yes"/>
      <point x="115" y="954"/>
      <point x="116" y="947"/>
      <point x="121" y="938" type="curve" smooth="yes"/>
      <point x="600" y="68" type="line" smooth="yes"/>
      <point x="623" y="27"/>
      <point x="665" y="0"/>
    </contour>
  </outline>
</glyph>
<glyph name="braceleft" format="1">
  <advance width="1172"/>
  <unicode hex="007B"/>
  <outline>
    <contour>
      <point x="730" y="-123" type="curve" smooth="yes"/>
      <point x="967" y="-123" type="line" smooth="yes"/>
      <point x="1009" y="-123"/>
      <point x="1044" y="-91"/>
      <point x="1044" y="-49" type="curve" smooth="yes"/>
      <point x="1044" y="52" type="line" smooth="yes"/>
      <point x="1044" y="104"/>
      <point x="1019" y="132"/>
      <point x="968" y="141" type="curve" smooth="yes"/>
      <point x="842" y="165"/>
      <point x="822" y="179"/>
      <point x="822" y="310" type="curve" smooth="yes"/>
      <point x="822" y="412" type="line" smooth="yes"/>
      <point x="822" y="522"/>
      <point x="769" y="654"/>
      <point x="631" y="695" type="curve" smooth="yes"/>
      <point x="624" y="697"/>
      <point x="621" y="704"/>
      <point x="621" y="710" type="curve" smooth="yes"/>
      <point x="621" y="716"/>
      <point x="624" y="723"/>
      <point x="631" y="725" type="curve" smooth="yes"/>
      <point x="775" y="762"/>
      <point x="822" y="896"/>
      <point x="822" y="1008" type="curve" smooth="yes"/>
      <point x="822" y="1110" type="line" smooth="yes"/>
      <point x="822" y="1239"/>
      <point x="842" y="1255"/>
      <point x="968" y="1279" type="curve" smooth="yes"/>
      <point x="1019" y="1288"/>
      <point x="1044" y="1316"/>
      <point x="1044" y="1368" type="curve" smooth="yes"/>
      <point x="1044" y="1469" type="line" smooth="yes"/>
      <point x="1044" y="1511"/>
      <point x="1009" y="1543"/>
      <point x="967" y="1543" type="curve" smooth="yes"/>
      <point x="730" y="1543" type="line" smooth="yes"/>
      <point x="492" y="1543"/>
      <point x="433" y="1399"/>
      <point x="402" y="1228" type="curve" smooth="yes"/>
      <point x="373" y="1057"/>
      <point x="355" y="918"/>
      <point x="249" y="866" type="curve" smooth="yes"/>
      <point x="238" y="860"/>
      <point x="217" y="854"/>
      <point x="204" y="851" type="curve" smooth="yes"/>
      <point x="148" y="837"/>
      <point x="126" y="807"/>
      <point x="126" y="710" type="curve" smooth="yes"/>
      <point x="126" y="623"/>
      <point x="148" y="583"/>
      <point x="204" y="569" type="curve" smooth="yes"/>
      <point x="217" y="566"/>
      <point x="238" y="560"/>
      <point x="249" y="554" type="curve" smooth="yes"/>
      <point x="355" y="502"/>
      <point x="373" y="363"/>
      <point x="402" y="192" type="curve" smooth="yes"/>
      <point x="433" y="21"/>
      <point x="492" y="-123"/>
    </contour>
  </outline>
</glyph>
<glyph name="asciitilde" format="1">
  <advance width="1583"/>
  <unicode hex="007E"/>
  <outline>
    <contour>
      <point x="530" y="795" type="curve" smooth="yes"/>
      <point x="725" y="795"/>
      <point x="876" y="911"/>
      <point x="1061" y="911" type="curve" smooth="yes"/>
      <point x="1139" y="911"/>
      <point x="1230" y="877"/>
      <point x="1319" y="829" type="curve" smooth="yes"/>
      <point x="1331" y="821"/>
      <point x="1343" y="818"/>
      <point x="1353" y="818" type="curve" smooth="yes"/>
      <point x="1383" y="818"/>
      <point x="1397" y="845"/>
      <point x="1406" y="872" type="curve"/>
      <point x="1406" y="872"/>
      <point x="1439" y="954"/>
      <point x="1444" y="966" type="curve" smooth="yes"/>
      <point x="1449" y="976"/>
      <point x="1452" y="986"/>
      <point x="1452" y="995" type="curve" smooth="yes"/>
      <point x="1452" y="1018"/>
      <point x="1437" y="1033"/>
      <point x="1411" y="1045" type="curve" smooth="yes"/>
      <point x="1272" y="1119"/>
      <point x="1153" y="1153"/>
      <point x="1043" y="1153" type="curve" smooth="yes"/>
      <point x="836" y="1153"/>
      <point x="697" y="1036"/>
      <point x="528" y="1036" type="curve" smooth="yes"/>
      <point x="451" y="1036"/>
      <point x="369" y="1069"/>
      <point x="270" y="1129" type="curve" smooth="yes"/>
      <point x="257" y="1137"/>
      <point x="245" y="1143"/>
      <point x="232" y="1143" type="curve" smooth="yes"/>
      <point x="213" y="1143"/>
      <point x="198" y="1131"/>
      <point x="186" y="1107" type="curve" smooth="yes"/>
      <point x="131" y="1007" type="line" smooth="yes"/>
      <point x="125" y="998"/>
      <point x="122" y="990"/>
      <point x="122" y="982" type="curve" smooth="yes"/>
      <point x="122" y="962"/>
      <point x="138" y="942"/>
      <point x="162" y="928" type="curve" smooth="yes"/>
      <point x="293" y="838"/>
      <point x="407" y="795"/>
    </contour>
  </outline>
</glyph>
<glyph name="copyright" format="1">
  <advance width="1906"/>
  <unicode hex="00A9"/>
  <outline>
    <contour>
      <point x="990" y="330" type="curve" smooth="yes"/>
      <point x="1104" y="330"/>
      <point x="1221" y="356"/>
      <point x="1308" y="394" type="curve" smooth="yes"/>
      <point x="1328" y="403"/>
      <point x="1340" y="435"/>
      <point x="1332" y="462" type="curve"/>
      <point x="1326" y="491"/>
      <point x="1319" y="517"/>
      <point x="1311" y="546" type="curve"/>
      <point x="1305" y="574"/>
      <point x="1284" y="590"/>
      <point x="1263" y="580" type="curve"/>
      <point x="1202" y="556"/>
      <point x="1117" y="535"/>
      <point x="1041" y="535" type="curve" smooth="yes"/>
      <point x="926" y="535"/>
      <point x="827" y="581"/>
      <point x="827" y="731" type="curve" smooth="yes"/>
      <point x="827" y="872"/>
      <point x="918" y="920"/>
      <point x="1027" y="920" type="curve" smooth="yes"/>
      <point x="1104" y="920"/>
      <point x="1191" y="893"/>
      <point x="1253" y="864" type="curve"/>
      <point x="1275" y="855"/>
      <point x="1298" y="870"/>
      <point x="1307" y="900" type="curve"/>
      <point x="1312" y="927"/>
      <point x="1321" y="954"/>
      <point x="1328" y="982" type="curve" smooth="yes"/>
      <point x="1335" y="1009"/>
      <point x="1323" y="1042"/>
      <point x="1303" y="1053" type="curve" smooth="yes"/>
      <point x="1220" y="1098"/>
      <point x="1101" y="1127"/>
      <point x="981" y="1127" type="curve" smooth="yes"/>
      <point x="757" y="1127"/>
      <point x="519" y="1022"/>
      <point x="519" y="731" type="curve" smooth="yes"/>
      <point x="519" y="432"/>
      <point x="752" y="330"/>
    </contour>
    <contour>
      <point x="955" y="124" type="curve" smooth="yes"/>
      <point x="505" y="124"/>
      <point x="337" y="440"/>
      <point x="337" y="713" type="curve" smooth="yes"/>
      <point x="337" y="998"/>
      <point x="505" y="1307"/>
      <point x="955" y="1307" type="curve" smooth="yes"/>
      <point x="1404" y="1307"/>
      <point x="1572" y="998"/>
      <point x="1572" y="713" type="curve" smooth="yes"/>
      <point x="1572" y="440"/>
      <point x="1404" y="124"/>
    </contour>
    <contour>
      <point x="952" y="-41" type="curve" smooth="yes"/>
      <point x="1496" y="-41"/>
      <point x="1768" y="318"/>
      <point x="1768" y="717" type="curve" smooth="yes"/>
      <point x="1768" y="1116"/>
      <point x="1496" y="1475"/>
      <point x="952" y="1475" type="curve" smooth="yes"/>
      <point x="408" y="1475"/>
      <point x="136" y="1116"/>
      <point x="136" y="717" type="curve" smooth="yes"/>
      <point x="136" y="318"/>
      <point x="408" y="-41"/>
    </contour>
  </outline>
</glyph>
<glyph name="ordfeminine" format="1">
  <advance width="2021"/>
  <unicode hex="00AA"/>
  <outline>
    <contour>
      <point x="528" y="533" type="curve" smooth="yes"/>
      <point x="835" y="533"/>
      <point x="1040" y="622"/>
      <point x="1134" y="753" type="curve" smooth="yes"/>
      <point x="1139" y="761"/>
      <point x="1144" y="766"/>
      <point x="1148" y="766" type="curve" smooth="yes"/>
      <point x="1153" y="766"/>
      <point x="1157" y="760"/>
      <point x="1160" y="750" type="curve" smooth="yes"/>
      <point x="1166" y="730"/>
      <point x="1204" y="663"/>
      <point x="1223" y="625" type="curve" smooth="yes"/>
      <point x="1240" y="589"/>
      <point x="1273" y="568"/>
      <point x="1307" y="568" type="curve" smooth="yes"/>
      <point x="1410" y="568" type="line" smooth="yes"/>
      <point x="1440" y="568"/>
      <point x="1463" y="593"/>
      <point x="1463" y="626" type="curve" smooth="yes"/>
      <point x="1463" y="1103" type="line" smooth="yes"/>
      <point x="1463" y="1401"/>
      <point x="1122" y="1474"/>
      <point x="713" y="1474" type="curve" smooth="yes"/>
      <point x="306" y="1474"/>
      <point x="100" y="1419"/>
      <point x="45" y="1296" type="curve" smooth="yes"/>
      <point x="40" y="1285"/>
      <point x="35" y="1271"/>
      <point x="35" y="1258" type="curve" smooth="yes"/>
      <point x="35" y="1243"/>
      <point x="48" y="1227"/>
      <point x="63" y="1226" type="curve" smooth="yes"/>
      <point x="387" y="1197" type="line" smooth="yes"/>
      <point x="395" y="1196"/>
      <point x="400" y="1195"/>
      <point x="405" y="1195" type="curve" smooth="yes"/>
      <point x="423" y="1195"/>
      <point x="437" y="1202"/>
      <point x="456" y="1220" type="curve" smooth="yes"/>
      <point x="523" y="1279"/>
      <point x="646" y="1298"/>
      <point x="718" y="1298" type="curve" smooth="yes"/>
      <point x="901" y="1298"/>
      <point x="964" y="1237"/>
      <point x="964" y="1130" type="curve" smooth="yes"/>
      <point x="964" y="1118" type="line" smooth="yes"/>
      <point x="964" y="1081"/>
      <point x="9" y="1127"/>
      <point x="10" y="773" type="curve" smooth="yes"/>
      <point x="11" y="621"/>
      <point x="218" y="533"/>
    </contour>
    <contour>
      <point x="616" y="718" type="curve" smooth="yes"/>
      <point x="522" y="718"/>
      <point x="477" y="749"/>
      <point x="477" y="801" type="curve" smooth="yes"/>
      <point x="476" y="886"/>
      <point x="645" y="924"/>
      <point x="918" y="958" type="curve"/>
      <point x="922" y="959"/>
      <point x="948" y="960"/>
      <point x="951" y="960" type="curve" smooth="yes"/>
      <point x="974" y="960"/>
      <point x="975" y="944"/>
      <point x="975" y="932" type="curve" smooth="yes"/>
      <point x="975" y="813"/>
      <point x="814" y="718"/>
    </contour>
  </outline>
</glyph>
<glyph name="plusminus" format="1">
  <advance width="1289"/>
  <unicode hex="00B1"/>
  <outline>
    <contour>
      <point x="565" y="253" type="curve" smooth="yes"/>
      <point x="723" y="253" type="line" smooth="yes"/>
      <point x="766" y="253"/>
      <point x="797" y="285"/>
      <point x="797" y="328" type="curve" smooth="yes"/>
      <point x="797" y="600" type="line" smooth="yes"/>
      <point x="797" y="620"/>
      <point x="812" y="637"/>
      <point x="832" y="637" type="curve" smooth="yes"/>
      <point x="1081" y="637" type="line" smooth="yes"/>
      <point x="1124" y="637"/>
      <point x="1155" y="668"/>
      <point x="1155" y="711" type="curve" smooth="yes"/>
      <point x="1155" y="852" type="line" smooth="yes"/>
      <point x="1155" y="895"/>
      <point x="1124" y="926"/>
      <point x="1081" y="926" type="curve" smooth="yes"/>
      <point x="832" y="926" type="line" smooth="yes"/>
      <point x="812" y="926"/>
      <point x="797" y="943"/>
      <point x="797" y="963" type="curve" smooth="yes"/>
      <point x="797" y="1236" type="line" smooth="yes"/>
      <point x="797" y="1279"/>
      <point x="766" y="1312"/>
      <point x="723" y="1312" type="curve" smooth="yes"/>
      <point x="565" y="1312" type="line" smooth="yes"/>
      <point x="522" y="1312"/>
      <point x="491" y="1279"/>
      <point x="491" y="1236" type="curve" smooth="yes"/>
      <point x="491" y="963" type="line" smooth="yes"/>
      <point x="491" y="943"/>
      <point x="475" y="926"/>
      <point x="455" y="926" type="curve" smooth="yes"/>
      <point x="203" y="926" type="line" smooth="yes"/>
      <point x="160" y="926"/>
      <point x="129" y="895"/>
      <point x="129" y="852" type="curve" smooth="yes"/>
      <point x="129" y="711" type="line" smooth="yes"/>
      <point x="129" y="668"/>
      <point x="160" y="637"/>
      <point x="203" y="637" type="curve" smooth="yes"/>
      <point x="455" y="637" type="line" smooth="yes"/>
      <point x="475" y="637"/>
      <point x="491" y="620"/>
      <point x="491" y="600" type="curve" smooth="yes"/>
      <point x="491" y="328" type="line" smooth="yes"/>
      <point x="491" y="285"/>
      <point x="522" y="253"/>
    </contour>
    <contour>
      <point x="200" y="-133" type="curve" smooth="yes"/>
      <point x="1085" y="-133" type="line" smooth="yes"/>
      <point x="1128" y="-133"/>
      <point x="1160" y="-101"/>
      <point x="1160" y="-58" type="curve" smooth="yes"/>
      <point x="1160" y="78" type="line" smooth="yes"/>
      <point x="1160" y="121"/>
      <point x="1128" y="154"/>
      <point x="1085" y="154" type="curve" smooth="yes"/>
      <point x="200" y="154" type="line" smooth="yes"/>
      <point x="157" y="154"/>
      <point x="124" y="121"/>
      <point x="124" y="78" type="curve" smooth="yes"/>
      <point x="124" y="-58" type="line" smooth="yes"/>
      <point x="124" y="-101"/>
      <point x="157" y="-133"/>
    </contour>
  </outline>
</glyph>
<glyph name="onehalf" format="1">
  <advance width="3666"/>
  <unicode hex="00BD"/>
  <outline>
    <contour>
      <point x="2462" y="0" type="curve" smooth="yes"/>
      <point x="2470" y="0"/>
      <point x="3327" y="3"/>
      <point x="3327" y="13" type="curve" smooth="yes"/>
      <point x="3349" y="13"/>
      <point x="3356" y="50"/>
      <point x="3356" y="74" type="curve" smooth="yes"/>
      <point x="3356" y="84"/>
      <point x="3352" y="184"/>
      <point x="3345" y="184" type="curve" smooth="yes"/>
      <point x="3345" y="207"/>
      <point x="3093" y="216"/>
      <point x="3076" y="216" type="curve" smooth="yes"/>
      <point x="3069" y="216"/>
      <point x="2578" y="219"/>
      <point x="2577" y="223" type="curve" smooth="yes"/>
      <point x="2558" y="228"/>
      <point x="2550" y="239"/>
      <point x="2553" y="254" type="curve" smooth="yes"/>
      <point x="2617" y="352"/>
      <point x="2837" y="285"/>
      <point x="2839" y="427" type="curve" smooth="yes"/>
      <point x="3054" y="575"/>
      <point x="3332" y="537"/>
      <point x="3181" y="831" type="curve" smooth="yes"/>
      <point x="3107" y="1018"/>
      <point x="2823" y="1028"/>
      <point x="2516" y="1016" type="curve" smooth="yes"/>
      <point x="2379" y="1013"/>
      <point x="2188" y="973"/>
      <point x="2112" y="931" type="curve" smooth="yes"/>
      <point x="2098" y="925"/>
      <point x="2096" y="899"/>
      <point x="2103" y="867" type="curve" smooth="yes"/>
      <point x="2105" y="860"/>
      <point x="2126" y="787"/>
      <point x="2151" y="754" type="curve"/>
      <point x="2157" y="743"/>
      <point x="2170" y="740"/>
      <point x="2192" y="741" type="curve" smooth="yes"/>
      <point x="2205" y="743"/>
      <point x="2290" y="767"/>
      <point x="2365" y="770" type="curve" smooth="yes"/>
      <point x="2465" y="774"/>
      <point x="2693" y="809"/>
      <point x="2855" y="780" type="curve" smooth="yes"/>
      <point x="2994" y="706"/>
      <point x="2727" y="771"/>
      <point x="2699" y="556" type="curve" smooth="yes"/>
      <point x="2699" y="445"/>
      <point x="2094" y="568"/>
      <point x="2052" y="129" type="curve" smooth="yes"/>
      <point x="2052" y="112"/>
      <point x="2053" y="51"/>
      <point x="2066" y="46" type="curve" smooth="yes"/>
      <point x="2066" y="18"/>
      <point x="2429" y="0"/>
    </contour>
    <contour>
      <point x="493" y="431" type="curve" smooth="yes"/>
      <point x="881" y="431" type="line" smooth="yes"/>
      <point x="911" y="431"/>
      <point x="934" y="454"/>
      <point x="934" y="484" type="curve" smooth="yes"/>
      <point x="934" y="1384" type="line" smooth="yes"/>
      <point x="934" y="1415"/>
      <point x="911" y="1437"/>
      <point x="881" y="1437" type="curve"/>
      <point x="266" y="1381" type="line"/>
      <point x="236" y="1381"/>
      <point x="213" y="1359"/>
      <point x="213" y="1329" type="curve" smooth="yes"/>
      <point x="213" y="1189" type="line" smooth="yes"/>
      <point x="213" y="1159"/>
      <point x="236" y="1136"/>
      <point x="266" y="1136" type="curve"/>
      <point x="414" y="1151" type="line"/>
      <point x="428" y="1151"/>
      <point x="440" y="1139"/>
      <point x="440" y="1125" type="curve" smooth="yes"/>
      <point x="440" y="484" type="line" smooth="yes"/>
      <point x="440" y="454"/>
      <point x="463" y="431"/>
    </contour>
    <contour>
      <point x="1204" y="-206" type="curve"/>
      <point x="1223" y="-206"/>
      <point x="1261" y="-195"/>
      <point x="1270" y="-178" type="curve" smooth="yes"/>
      <point x="1276" y="-178"/>
      <point x="2160" y="1620"/>
      <point x="2155" y="1620" type="curve" smooth="yes"/>
      <point x="2160" y="1632"/>
      <point x="2140" y="1645"/>
      <point x="2115" y="1646" type="curve" smooth="yes"/>
      <point x="2102" y="1647"/>
      <point x="1856" y="1648"/>
      <point x="1855" y="1648" type="curve" smooth="yes"/>
      <point x="1836" y="1648"/>
      <point x="1799" y="1637"/>
      <point x="1790" y="1620" type="curve" smooth="yes"/>
      <point x="1785" y="1620"/>
      <point x="899" y="-176"/>
      <point x="905" y="-176" type="curve" smooth="yes"/>
      <point x="899" y="-188"/>
      <point x="919" y="-202"/>
      <point x="944" y="-203" type="curve" smooth="yes"/>
      <point x="957" y="-204"/>
      <point x="1203" y="-206"/>
    </contour>
  </outline>
</glyph>
<glyph name="germandbls" format="1">
  <advance width="2042"/>
  <unicode hex="00DF"/>
  <outline>
    <contour>
      <point x="230" y="0" type="curve" smooth="yes"/>
      <point x="615" y="0" type="line" smooth="yes"/>
      <point x="685" y="0"/>
      <point x="705" y="43"/>
      <point x="705" y="103" type="curve" smooth="yes"/>
      <point x="705" y="920" type="line" smooth="yes"/>
      <point x="705" y="1077"/>
      <point x="781" y="1147"/>
      <point x="963" y="1147" type="curve" smooth="yes"/>
      <point x="1172" y="1147"/>
      <point x="1310" y="1136"/>
      <point x="1310" y="997" type="curve" smooth="yes"/>
      <point x="1310" y="897"/>
      <point x="1240" y="865"/>
      <point x="1049" y="861" type="curve"/>
      <point x="943" y="861" type="line" smooth="yes"/>
      <point x="896" y="861"/>
      <point x="888" y="832"/>
      <point x="888" y="811" type="curve" smooth="yes"/>
      <point x="888" y="689" type="line" smooth="yes"/>
      <point x="888" y="670"/>
      <point x="903" y="646"/>
      <point x="943" y="646" type="curve" smooth="yes"/>
      <point x="1033" y="646" type="line" smooth="yes"/>
      <point x="1276" y="646"/>
      <point x="1367" y="623"/>
      <point x="1367" y="497" type="curve" smooth="yes"/>
      <point x="1367" y="356"/>
      <point x="1250" y="334"/>
      <point x="1016" y="334" type="curve" smooth="yes"/>
      <point x="947" y="334" type="line"/>
      <point x="897" y="337"/>
      <point x="883" y="300"/>
      <point x="883" y="277" type="curve" smooth="yes"/>
      <point x="883" y="73" type="line" smooth="yes"/>
      <point x="883" y="37"/>
      <point x="896" y="0"/>
      <point x="944" y="0" type="curve" smooth="yes"/>
      <point x="1009" y="0" type="line" smooth="yes"/>
      <point x="1508" y="0"/>
      <point x="1910" y="96"/>
      <point x="1910" y="424" type="curve" smooth="yes"/>
      <point x="1910" y="590"/>
      <point x="1797" y="697"/>
      <point x="1638" y="758" type="curve" smooth="yes"/>
      <point x="1623" y="764"/>
      <point x="1622" y="779"/>
      <point x="1635" y="787" type="curve" smooth="yes"/>
      <point x="1741" y="847"/>
      <point x="1783" y="929"/>
      <point x="1783" y="1040" type="curve" smooth="yes"/>
      <point x="1783" y="1339"/>
      <point x="1455" y="1438"/>
      <point x="1027" y="1438" type="curve" smooth="yes"/>
      <point x="824" y="1438" type="line" smooth="yes"/>
      <point x="237" y="1438"/>
      <point x="156" y="1232"/>
      <point x="156" y="969" type="curve" smooth="yes"/>
      <point x="156" y="77" type="line" smooth="yes"/>
      <point x="156" y="34"/>
      <point x="187" y="0"/>
    </contour>
  </outline>
</glyph>
<glyph name="oslash" format="1">
  <advance width="2002"/>
  <unicode hex="00F8"/>
  <outline>
    <contour>
      <point x="747" y="-202" type="line"/>
      <point x="765" y="-202"/>
      <point x="784" y="-189"/>
      <point x="792" y="-169" type="curve" smooth="yes"/>
      <point x="847" y="-37" type="line"/>
      <point x="900" y="-40"/>
      <point x="952" y="-41"/>
      <point x="1001" y="-41" type="curve" smooth="yes"/>
      <point x="1373" y="-41"/>
      <point x="1870" y="16"/>
      <point x="1870" y="507" type="curve" smooth="yes"/>
      <point x="1870" y="868"/>
      <point x="1580" y="994"/>
      <point x="1290" y="1035" type="curve"/>
      <point x="1343" y="1164" type="line" smooth="yes"/>
      <point x="1349" y="1179"/>
      <point x="1340" y="1197"/>
      <point x="1326" y="1197" type="curve" smooth="yes"/>
      <point x="1249" y="1197" type="line" smooth="yes"/>
      <point x="1230" y="1197"/>
      <point x="1213" y="1184"/>
      <point x="1205" y="1164" type="curve" smooth="yes"/>
      <point x="1157" y="1048" type="line"/>
      <point x="1103" y="1052"/>
      <point x="1051" y="1053"/>
      <point x="1001" y="1053" type="curve" smooth="yes"/>
      <point x="655" y="1053"/>
      <point x="132" y="992"/>
      <point x="132" y="507" type="curve" smooth="yes"/>
      <point x="132" y="138"/>
      <point x="414" y="16"/>
      <point x="713" y="-24" type="curve"/>
      <point x="653" y="-167" type="line" smooth="yes"/>
      <point x="646" y="-182"/>
      <point x="655" y="-200"/>
      <point x="670" y="-200" type="curve" smooth="yes"/>
    </contour>
    <contour>
      <point x="825" y="248" type="line"/>
      <point x="732" y="291"/>
      <point x="678" y="376"/>
      <point x="679" y="507" type="curve" smooth="yes"/>
      <point x="678" y="681"/>
      <point x="798" y="798"/>
      <point x="1001" y="798" type="curve" smooth="yes"/>
      <point x="1019" y="798"/>
      <point x="1036" y="797"/>
      <point x="1052" y="795" type="curve"/>
    </contour>
    <contour>
      <point x="1001" y="215" type="curve" smooth="yes"/>
      <point x="984" y="215"/>
      <point x="967" y="216"/>
      <point x="952" y="217" type="curve"/>
      <point x="1177" y="760" type="line"/>
      <point x="1271" y="713"/>
      <point x="1324" y="623"/>
      <point x="1324" y="507" type="curve" smooth="yes"/>
      <point x="1324" y="308"/>
      <point x="1201" y="215"/>
    </contour>
    <contour>
      <point x="1001" y="1006" type="move" name="top"/>
    </contour>
  </outline>
</glyph>
<glyph name="Hbar" format="1">
  <advance width="2391"/>
  <unicode hex="0126"/>
  <outline>
    <contour>
      <point x="235" y="0" type="curve" smooth="yes"/>
      <point x="736" y="0" type="line" smooth="yes"/>
      <point x="779" y="0"/>
      <point x="811" y="33"/>
      <point x="811" y="76" type="curve" smooth="yes"/>
      <point x="811" y="538" type="line" smooth="yes"/>
      <point x="811" y="555"/>
      <point x="828" y="571"/>
      <point x="845" y="571" type="curve" smooth="yes"/>
      <point x="1534" y="571" type="line" smooth="yes"/>
      <point x="1551" y="571"/>
      <point x="1568" y="554"/>
      <point x="1568" y="537" type="curve" smooth="yes"/>
      <point x="1568" y="76" type="line" smooth="yes"/>
      <point x="1568" y="33"/>
      <point x="1600" y="0"/>
      <point x="1643" y="0" type="curve" smooth="yes"/>
      <point x="2155" y="0" type="line" smooth="yes"/>
      <point x="2198" y="0"/>
      <point x="2231" y="33"/>
      <point x="2231" y="76" type="curve" smooth="yes"/>
      <point x="2231" y="1089" type="line"/>
      <point x="2330" y="1089" type="line" smooth="yes"/>
      <point x="2372" y="1089"/>
      <point x="2382" y="1121"/>
      <point x="2382" y="1164" type="curve" smooth="yes"/>
      <point x="2382" y="1200" type="line" smooth="yes"/>
      <point x="2382" y="1243"/>
      <point x="2372" y="1275"/>
      <point x="2330" y="1275" type="curve" smooth="yes"/>
      <point x="2231" y="1275" type="line"/>
      <point x="2231" y="1363" type="line" smooth="yes"/>
      <point x="2231" y="1406"/>
      <point x="2198" y="1438"/>
      <point x="2155" y="1438" type="curve" smooth="yes"/>
      <point x="1645" y="1438" type="line" smooth="yes"/>
      <point x="1602" y="1438"/>
      <point x="1569" y="1406"/>
      <point x="1569" y="1363" type="curve" smooth="yes"/>
      <point x="1569" y="1275" type="line"/>
      <point x="806" y="1275" type="line"/>
      <point x="806" y="1363" type="line" smooth="yes"/>
      <point x="806" y="1406"/>
      <point x="774" y="1438"/>
      <point x="731" y="1438" type="curve" smooth="yes"/>
      <point x="235" y="1438" type="line" smooth="yes"/>
      <point x="192" y="1438"/>
      <point x="159" y="1406"/>
      <point x="159" y="1363" type="curve" smooth="yes"/>
      <point x="159" y="1275" type="line"/>
      <point x="55" y="1275" type="line" smooth="yes"/>
      <point x="14" y="1275"/>
      <point x="4" y="1243"/>
      <point x="4" y="1200" type="curve" smooth="yes"/>
      <point x="4" y="1164" type="line" smooth="yes"/>
      <point x="4" y="1121"/>
      <point x="14" y="1089"/>
      <point x="55" y="1089" type="curve" smooth="yes"/>
      <point x="159" y="1089" type="line"/>
      <point x="159" y="76" type="line" smooth="yes"/>
      <point x="159" y="33"/>
      <point x="192" y="0"/>
    </contour>
    <contour>
      <point x="840" y="906" type="line"/>
      <point x="823" y="906"/>
      <point x="806" y="922"/>
      <point x="806" y="939" type="curve" smooth="yes"/>
      <point x="806" y="1089" type="line"/>
      <point x="1569" y="1089" type="line"/>
      <point x="1569" y="940" type="line"/>
      <point x="1569" y="924"/>
      <point x="1554" y="908"/>
      <point x="1538" y="906" type="curve"/>
    </contour>
  </outline>
</glyph>
<glyph name="lslash" format="1">
  <advance width="931"/>
  <unicode hex="0142"/>
  <outline>
    <contour>
      <point x="286" y="0" type="curve" smooth="yes"/>
      <point x="684" y="0" type="line" smooth="yes"/>
      <point x="727" y="0"/>
      <point x="759" y="33"/>
      <point x="759" y="76" type="curve" smooth="yes"/>
      <point x="759" y="808" type="line"/>
      <point x="900" y="844" type="line" smooth="yes"/>
      <point x="922" y="844"/>
      <point x="940" y="867"/>
      <point x="940" y="896" type="curve"/>
      <point x="940" y="1056" type="line"/>
      <point x="940" y="1083"/>
      <point x="922" y="1104"/>
      <point x="900" y="1104" type="curve" smooth="yes"/>
      <point x="759" y="1068" type="line"/>
      <point x="759" y="1369" type="line" smooth="yes"/>
      <point x="759" y="1412"/>
      <point x="727" y="1444"/>
      <point x="684" y="1444" type="curve" smooth="yes"/>
      <point x="286" y="1444" type="line" smooth="yes"/>
      <point x="243" y="1444"/>
      <point x="210" y="1412"/>
      <point x="210" y="1369" type="curve" smooth="yes"/>
      <point x="210" y="931" type="line"/>
      <point x="82" y="898" type="line" smooth="yes"/>
      <point x="61" y="894"/>
      <point x="44" y="873"/>
      <point x="44" y="843" type="curve"/>
      <point x="44" y="695" type="line"/>
      <point x="44" y="664"/>
      <point x="61" y="634"/>
      <point x="82" y="638" type="curve" smooth="yes"/>
      <point x="210" y="671" type="line"/>
      <point x="210" y="76" type="line" smooth="yes"/>
      <point x="210" y="33"/>
      <point x="243" y="0"/>
    </contour>
  </outline>
</glyph>
<glyph name="circumflex" format="1">
  <advance width="937"/>
  <unicode hex="02C6"/>
  <outline>
    <contour>
      <point x="120" y="1168" type="curve" smooth="yes"/>
      <point x="172" y="1168" type="line" smooth="yes"/>
      <point x="222" y="1168"/>
      <point x="267" y="1190"/>
      <point x="310" y="1223" type="curve" smooth="yes"/>
      <point x="427" y="1315" type="line" smooth="yes"/>
      <point x="437" y="1323"/>
      <point x="450" y="1326"/>
      <point x="462" y="1326" type="curve" smooth="yes"/>
      <point x="474" y="1326"/>
      <point x="485" y="1323"/>
      <point x="496" y="1315" type="curve"/>
      <point x="613" y="1223" type="line" smooth="yes"/>
      <point x="656" y="1190"/>
      <point x="702" y="1168"/>
      <point x="751" y="1168" type="curve" smooth="yes"/>
      <point x="803" y="1168" type="line" smooth="yes"/>
      <point x="822" y="1168"/>
      <point x="834" y="1190"/>
      <point x="834" y="1212" type="curve" smooth="yes"/>
      <point x="834" y="1223"/>
      <point x="831" y="1234"/>
      <point x="824" y="1244" type="curve" smooth="yes"/>
      <point x="649" y="1463" type="line" smooth="yes"/>
      <point x="612" y="1510"/>
      <point x="557" y="1539"/>
      <point x="505" y="1539" type="curve" smooth="yes"/>
      <point x="416" y="1539" type="line" smooth="yes"/>
      <point x="366" y="1539"/>
      <point x="311" y="1510"/>
      <point x="274" y="1463" type="curve" smooth="yes"/>
      <point x="98" y="1244" type="line" smooth="yes"/>
      <point x="90" y="1234"/>
      <point x="87" y="1223"/>
      <point x="87" y="1212" type="curve" smooth="yes"/>
      <point x="87" y="1190"/>
      <point x="100" y="1168"/>
    </contour>
    <contour>
      <point x="461" y="1006" type="move" name="_top"/>
    </contour>
  </outline>
</glyph>
<glyph name="breve" format="1">
  <advance width="1366"/>
  <unicode hex="02D8"/>
  <outline>
    <contour>
      <point x="562" y="1192" type="curve" smooth="yes"/>
      <point x="727" y="1192"/>
      <point x="937" y="1223"/>
      <point x="940" y="1505" type="curve"/>
      <point x="690" y="1505" type="line"/>
      <point x="688" y="1399"/>
      <point x="642" y="1351"/>
      <point x="562" y="1351" type="curve" smooth="yes"/>
      <point x="481" y="1351"/>
      <point x="434" y="1400"/>
      <point x="432" y="1505" type="curve"/>
      <point x="182" y="1505" type="line"/>
      <point x="185" y="1223"/>
      <point x="396" y="1192"/>
    </contour>
    <contour>
      <point x="561" y="1006" type="move" name="_top"/>
    </contour>
  </outline>
</glyph>
<glyph name="dotaccent" format="1">
  <advance width="609"/>
  <unicode hex="02D9"/>
  <outline>
    <contour>
      <point x="117" y="49" type="curve" smooth="yes"/>
      <point x="330" y="49" type="line" smooth="yes"/>
      <point x="373" y="49"/>
      <point x="407" y="83"/>
      <point x="407" y="126" type="curve" smooth="yes"/>
      <point x="407" y="314" type="line" smooth="yes"/>
      <point x="407" y="357"/>
      <point x="373" y="391"/>
      <point x="330" y="391" type="curve" smooth="yes"/>
      <point x="117" y="391" type="line" smooth="yes"/>
      <point x="74" y="391"/>
      <point x="40" y="357"/>
      <point x="40" y="314" type="curve" smooth="yes"/>
      <point x="40" y="126" type="line" smooth="yes"/>
      <point x="40" y="83"/>
      <point x="74" y="49"/>
    </contour>
    <contour>
      <point x="224" y="1006" type="move" name="_top"/>
    </contour>
  </outline>
</glyph>
<glyph name="uni030F" format="1">
  <advance width="1531"/>
  <unicode hex="030F"/>
  <outline>
    <contour>
      <point x="563" y="1170" type="curve" smooth="yes"/>
      <point x="660" y="1170" type="line" smooth="yes"/>
      <point x="689" y="1170"/>
      <point x="702" y="1175"/>
      <point x="702" y="1202" type="curve" smooth="yes"/>
      <point x="702" y="1211"/>
      <point x="701" y="1223"/>
      <point x="698" y="1237" type="curve" smooth="yes"/>
      <point x="635" y="1563" type="line" smooth="yes"/>
      <point x="627" y="1606"/>
      <point x="608" y="1618"/>
      <point x="564" y="1618" type="curve" smooth="yes"/>
      <point x="303" y="1618" type="line" smooth="yes"/>
      <point x="283" y="1618"/>
      <point x="275" y="1606"/>
      <point x="275" y="1590" type="curve" smooth="yes"/>
      <point x="275" y="1579"/>
      <point x="280" y="1565"/>
      <point x="287" y="1553" type="curve" smooth="yes"/>
      <point x="507" y="1209" type="line" smooth="yes"/>
      <point x="518" y="1191"/>
      <point x="525" y="1170"/>
    </contour>
    <contour>
      <point x="1058" y="1170" type="curve" smooth="yes"/>
      <point x="1154" y="1170" type="line" smooth="yes"/>
      <point x="1183" y="1170"/>
      <point x="1196" y="1175"/>
      <point x="1196" y="1202" type="curve" smooth="yes"/>
      <point x="1196" y="1211"/>
      <point x="1195" y="1223"/>
      <point x="1192" y="1237" type="curve" smooth="yes"/>
      <point x="1129" y="1563" type="line" smooth="yes"/>
      <point x="1121" y="1606"/>
      <point x="1102" y="1618"/>
      <point x="1058" y="1618" type="curve" smooth="yes"/>
      <point x="798" y="1618" type="line" smooth="yes"/>
      <point x="778" y="1618"/>
      <point x="770" y="1606"/>
      <point x="770" y="1590" type="curve" smooth="yes"/>
      <point x="770" y="1579"/>
      <point x="775" y="1565"/>
      <point x="782" y="1553" type="curve" smooth="yes"/>
      <point x="1002" y="1209" type="line" smooth="yes"/>
      <point x="1013" y="1191"/>
      <point x="1020" y="1170"/>
    </contour>
    <contour>
      <point x="736" y="1006" type="move" name="_top"/>
    </contour>
  </outline>
</glyph>
<glyph name="quoteleft" format="1">
  <advance width="672"/>
  <unicode hex="2018"/>
  <outline>
    <contour>
      <point x="204" y="801" type="curve" smooth="yes"/>
      <point x="466" y="801" type="line" smooth="yes"/>
      <point x="509" y="801"/>
      <point x="526" y="833"/>
      <point x="526" y="876" type="curve" smooth="yes"/>
      <point x="526" y="1079" type="line" smooth="yes"/>
      <point x="526" y="1117"/>
      <point x="504" y="1146"/>
      <point x="466" y="1146" type="curve" smooth="yes"/>
      <point x="388" y="1146" type="line" smooth="yes"/>
      <point x="373" y="1146"/>
      <point x="371" y="1157"/>
      <point x="371" y="1173" type="curve" smooth="yes"/>
      <point x="371" y="1197"/>
      <point x="387" y="1274"/>
      <point x="456" y="1317" type="curve" smooth="yes"/>
      <point x="499" y="1344"/>
      <point x="526" y="1338"/>
      <point x="526" y="1392" type="curve" smooth="yes"/>
      <point x="526" y="1436" type="line" smooth="yes"/>
      <point x="526" y="1472"/>
      <point x="486" y="1487"/>
      <point x="451" y="1481" type="curve" smooth="yes"/>
      <point x="313" y="1458"/>
      <point x="139" y="1347"/>
      <point x="139" y="1110" type="curve" smooth="yes"/>
      <point x="139" y="878" type="line" smooth="yes"/>
      <point x="139" y="835"/>
      <point x="161" y="801"/>
    </contour>
  </outline>
</glyph>
<glyph name="lessequal" format="1">
  <advance width="1257"/>
  <unicode hex="2264"/>
  <outline>
    <contour>
      <point x="1073" y="-2" type="curve" smooth="yes"/>
      <point x="1092" y="-2"/>
      <point x="1107" y="14"/>
      <point x="1107" y="40" type="curve" smooth="yes"/>
      <point x="1107" y="273" type="line" smooth="yes"/>
      <point x="1107" y="317"/>
      <point x="1083" y="353"/>
      <point x="1039" y="375" type="curve" smooth="yes"/>
      <point x="434" y="606" type="line" smooth="yes"/>
      <point x="428" y="608"/>
      <point x="425" y="615"/>
      <point x="425" y="620" type="curve" smooth="yes"/>
      <point x="425" y="626"/>
      <point x="427" y="632"/>
      <point x="434" y="635" type="curve" smooth="yes"/>
      <point x="1039" y="885" type="line" smooth="yes"/>
      <point x="1081" y="906"/>
      <point x="1107" y="937"/>
      <point x="1107" y="981" type="curve" smooth="yes"/>
      <point x="1107" y="1228" type="line" smooth="yes"/>
      <point x="1107" y="1256"/>
      <point x="1091" y="1272"/>
      <point x="1070" y="1272" type="curve" smooth="yes"/>
      <point x="1061" y="1272"/>
      <point x="1051" y="1270"/>
      <point x="1040" y="1264" type="curve" smooth="yes"/>
      <point x="199" y="872" type="line" smooth="yes"/>
      <point x="156" y="852"/>
      <point x="132" y="810"/>
      <point x="132" y="767" type="curve" smooth="yes"/>
      <point x="132" y="504" type="line" smooth="yes"/>
      <point x="132" y="460"/>
      <point x="156" y="415"/>
      <point x="198" y="394" type="curve"/>
      <point x="1040" y="10" type="line"/>
      <point x="1054" y="4"/>
      <point x="1064" y="-2"/>
    </contour>
  </outline>
</glyph>
<glyph name="uniFB03" format="1">
  <advance width="3481"/>
  <outline>
    <contour>
      <point x="444" y="0" type="curve" smooth="yes"/>
      <point x="864" y="0" type="line" smooth="yes"/>
      <point x="907" y="0"/>
      <point x="941" y="34"/>
      <point x="941" y="77" type="curve" smooth="yes"/>
      <point x="941" y="762" type="line" smooth="yes"/>
      <point x="941" y="782"/>
      <point x="944" y="799"/>
      <point x="964" y="799" type="curve" smooth="yes"/>
      <point x="1547" y="799" type="line" smooth="yes"/>
      <point x="1567" y="799"/>
      <point x="1567" y="782"/>
      <point x="1567" y="762" type="curve" smooth="yes"/>
      <point x="1567" y="77" type="line" smooth="yes"/>
      <point x="1567" y="34"/>
      <point x="1601" y="0"/>
      <point x="1644" y="0" type="curve" smooth="yes"/>
      <point x="2064" y="0" type="line" smooth="yes"/>
      <point x="2107" y="0"/>
      <point x="2141" y="34"/>
      <point x="2141" y="77" type="curve" smooth="yes"/>
      <point x="2141" y="762" type="line" smooth="yes"/>
      <point x="2141" y="782"/>
      <point x="2144" y="799"/>
      <point x="2164" y="799" type="curve" smooth="yes"/>
      <point x="2771" y="799" type="line"/>
      <point x="2771" y="76" type="line" smooth="yes"/>
      <point x="2771" y="33"/>
      <point x="2804" y="0"/>
      <point x="2847" y="0" type="curve" smooth="yes"/>
      <point x="3245" y="0" type="line" smooth="yes"/>
      <point x="3288" y="0"/>
      <point x="3321" y="33"/>
      <point x="3321" y="76" type="curve" smooth="yes"/>
      <point x="3321" y="931" type="line" smooth="yes"/>
      <point x="3321" y="974"/>
      <point x="3288" y="1006"/>
      <point x="3245" y="1006" type="curve" smooth="yes"/>
      <point x="2148" y="1006" type="line" smooth="yes"/>
      <point x="2144" y="1006"/>
      <point x="2141" y="1010"/>
      <point x="2141" y="1013" type="curve" smooth="yes"/>
      <point x="2141" y="1062" type="line" smooth="yes"/>
      <point x="2141" y="1158"/>
      <point x="2230" y="1199"/>
      <point x="2387" y="1199" type="curve" smooth="yes"/>
      <point x="2442" y="1199"/>
      <point x="2557" y="1181"/>
      <point x="2561" y="1181" type="curve" smooth="yes"/>
      <point x="2595" y="1181"/>
      <point x="2602" y="1193"/>
      <point x="2602" y="1230" type="curve" smooth="yes"/>
      <point x="2602" y="1377" type="line" smooth="yes"/>
      <point x="2602" y="1405"/>
      <point x="2580" y="1431"/>
      <point x="2552" y="1438" type="curve"/>
      <point x="2460" y="1456"/>
      <point x="2340" y="1475"/>
      <point x="2226" y="1475" type="curve" smooth="yes"/>
      <point x="1901" y="1475"/>
      <point x="1588" y="1367"/>
      <point x="1568" y="1044" type="curve" smooth="yes"/>
      <point x="1567" y="1022"/>
      <point x="1567" y="1006"/>
      <point x="1545" y="1006" type="curve" smooth="yes"/>
      <point x="948" y="1006" type="line" smooth="yes"/>
      <point x="944" y="1006"/>
      <point x="941" y="1010"/>
      <point x="941" y="1013" type="curve" smooth="yes"/>
      <point x="941" y="1062" type="line" smooth="yes"/>
      <point x="941" y="1158"/>
      <point x="1036" y="1199"/>
      <point x="1201" y="1199" type="curve" smooth="yes"/>
      <point x="1259" y="1199"/>
      <point x="1378" y="1181"/>
      <point x="1383" y="1181" type="curve" smooth="yes"/>
      <point x="1417" y="1181"/>
      <point x="1423" y="1193"/>
      <point x="1423" y="1230" type="curve" smooth="yes"/>
      <point x="1423" y="1377" type="line" smooth="yes"/>
      <point x="1423" y="1405"/>
      <point x="1401" y="1431"/>
      <point x="1373" y="1438" type="curve"/>
      <point x="1276" y="1456"/>
      <point x="1148" y="1475"/>
      <point x="1026" y="1475" type="curve" smooth="yes"/>
      <point x="701" y="1475"/>
      <point x="389" y="1367"/>
      <point x="368" y="1044" type="curve" smooth="yes"/>
      <point x="367" y="1022"/>
      <point x="367" y="1006"/>
      <point x="345" y="1006" type="curve" smooth="yes"/>
      <point x="195" y="1006" type="line" smooth="yes"/>
      <point x="152" y="1006"/>
      <point x="128" y="988"/>
      <point x="128" y="945" type="curve" smooth="yes"/>
      <point x="128" y="851" type="line" smooth="yes"/>
      <point x="128" y="808"/>
      <point x="152" y="799"/>
      <point x="195" y="799" type="curve" smooth="yes"/>
      <point x="347" y="799" type="line" smooth="yes"/>
      <point x="367" y="799"/>
      <point x="367" y="782"/>
      <point x="367" y="762" type="curve" smooth="yes"/>
      <point x="367" y="77" type="line" smooth="yes"/>
      <point x="367" y="34"/>
      <point x="401" y="0"/>
    </contour>
    <contour>
      <point x="2847" y="1156" type="curve" smooth="yes"/>
      <point x="3245" y="1156" type="line" smooth="yes"/>
      <point x="3288" y="1156"/>
      <point x="3321" y="1189"/>
      <point x="3321" y="1232" type="curve" smooth="yes"/>
      <point x="3321" y="1441" type="line" smooth="yes"/>
      <point x="3321" y="1484"/>
      <point x="3288" y="1516"/>
      <point x="3245" y="1516" type="curve" smooth="yes"/>
      <point x="2847" y="1516" type="line" smooth="yes"/>
      <point x="2804" y="1516"/>
      <point x="2771" y="1484"/>
      <point x="2771" y="1441" type="curve" smooth="yes"/>
      <point x="2771" y="1232" type="line" smooth="yes"/>
      <point x="2771" y="1189"/>
      <point x="2804" y="1156"/>
    </contour>
  </outline>
</glyph>
